<svg xmlns="http://www.w3.org/2000/svg" viewBox="0 0 1200 300">
  <defs>
    <linearGradient id="bg" x1="0%" y1="0%" x2="100%" y2="100%">
      <stop offset="0%" style="stop-color:#0f0c29"/>
      <stop offset="50%" style="stop-color:#302b63"/>
      <stop offset="100%" style="stop-color:#24243e"/>
    </linearGradient>
    <linearGradient id="accent" x1="0%" y1="0%" x2="100%" y2="0%">
      <stop offset="0%" style="stop-color:#667eea"/>
      <stop offset="100%" style="stop-color:#764ba2"/>
    </linearGradient>
    <linearGradient id="green" x1="0%" y1="0%" x2="100%" y2="0%">
      <stop offset="0%" style="stop-color:#11998e"/>
      <stop offset="100%" style="stop-color:#38ef7d"/>
    </linearGradient>
    <!-- Point cloud dots pattern -->
    <filter id="glow">
      <feGaussianBlur stdDeviation="2" result="coloredBlur"/>
      <feMerge>
        <feMergeNode in="coloredBlur"/>
        <feMergeNode in="SourceGraphic"/>
      </feMerge>
    </filter>
  </defs>
  
  <!-- Background -->
  <rect width="1200" height="300" fill="url(#bg)"/>
  
  <!-- Subtle grid -->
  <g opacity="0.06" stroke="#fff" stroke-width="0.5">
    <line x1="0" y1="60" x2="1200" y2="60"/>
    <line x1="0" y1="120" x2="1200" y2="120"/>
    <line x1="0" y1="180" x2="1200" y2="180"/>
    <line x1="0" y1="240" x2="1200" y2="240"/>
    <line x1="200" y1="0" x2="200" y2="300"/>
    <line x1="400" y1="0" x2="400" y2="300"/>
    <line x1="600" y1="0" x2="600" y2="300"/>
    <line x1="800" y1="0" x2="800" y2="300"/>
    <line x1="1000" y1="0" x2="1000" y2="300"/>
  </g>
  
  <!-- Scattered point cloud dots (left side) -->
  <g filter="url(#glow)" opacity="0.7">
    <!-- Blue predicted points -->
    <circle cx="80" cy="80" r="2.5" fill="#667eea"/>
    <circle cx="95" cy="75" r="2" fill="#667eea"/>
    <circle cx="110" cy="90" r="3" fill="#667eea"/>
    <circle cx="70" cy="100" r="2" fill="#667eea"/>
    <circle cx="120" cy="70" r="2.5" fill="#667eea"/>
    <circle cx="90" cy="110" r="2" fill="#667eea"/>
    <circle cx="105" cy="95" r="3" fill="#667eea"/>
    <circle cx="130" cy="85" r="2" fill="#667eea"/>
    <circle cx="85" cy="65" r="2.5" fill="#667eea"/>
    <circle cx="75" cy="115" r="2" fill="#667eea"/>
    <circle cx="115" cy="105" r="2.5" fill="#667eea"/>
    <circle cx="100" cy="60" r="2" fill="#667eea"/>
    <circle cx="65" cy="90" r="3" fill="#667eea"/>
    <circle cx="125" cy="95" r="2" fill="#667eea"/>
    <circle cx="90" cy="55" r="2.5" fill="#667eea"/>
    
    <!-- Green GT points -->
    <circle cx="80" cy="180" r="2.5" fill="#38ef7d"/>
    <circle cx="95" cy="175" r="2" fill="#38ef7d"/>
    <circle cx="110" cy="190" r="3" fill="#38ef7d"/>
    <circle cx="70" cy="200" r="2" fill="#38ef7d"/>
    <circle cx="120" cy="170" r="2.5" fill="#38ef7d"/>
    <circle cx="90" cy="210" r="2" fill="#38ef7d"/>
    <circle cx="105" cy="195" r="3" fill="#38ef7d"/>
    <circle cx="130" cy="185" r="2" fill="#38ef7d"/>
    <circle cx="85" cy="165" r="2.5" fill="#38ef7d"/>
    <circle cx="75" cy="215" r="2" fill="#38ef7d"/>
    <circle cx="115" cy="205" r="2.5" fill="#38ef7d"/>
    <circle cx="100" cy="160" r="2" fill="#38ef7d"/>
    <circle cx="65" cy="190" r="3" fill="#38ef7d"/>
    <circle cx="125" cy="195" r="2" fill="#38ef7d"/>
  </g>
  
  <!-- Right side abstract point cloud shape (car silhouette in dots) -->
  <g filter="url(#glow)" opacity="0.5">
    <circle cx="950" cy="120" r="2" fill="#667eea"/>
    <circle cx="960" cy="115" r="2.5" fill="#667eea"/>
    <circle cx="970" cy="110" r="2" fill="#667eea"/>
    <circle cx="980" cy="108" r="3" fill="#764ba2"/>
    <circle cx="990" cy="105" r="2" fill="#764ba2"/>
    <circle cx="1000" cy="108" r="2.5" fill="#764ba2"/>
    <circle cx="1010" cy="112" r="2" fill="#764ba2"/>
    <circle cx="1020" cy="118" r="2.5" fill="#667eea"/>
    <circle cx="1030" cy="125" r="2" fill="#667eea"/>
    <circle cx="1040" cy="130" r="3" fill="#667eea"/>
    <circle cx="945" cy="135" r="2" fill="#667eea"/>
    <circle cx="955" cy="130" r="2" fill="#764ba2"/>
    <circle cx="965" cy="128" r="2.5" fill="#764ba2"/>
    <circle cx="975" cy="125" r="2" fill="#764ba2"/>
    <circle cx="985" cy="122" r="3" fill="#667eea"/>
    <circle cx="995" cy="120" r="2" fill="#667eea"/>
    <circle cx="1005" cy="122" r="2.5" fill="#667eea"/>
    <circle cx="1015" cy="128" r="2" fill="#764ba2"/>
    <circle cx="1025" cy="132" r="2" fill="#764ba2"/>
    <circle cx="1035" cy="138" r="2.5" fill="#667eea"/>
    
    <circle cx="950" cy="150" r="2" fill="#667eea"/>
    <circle cx="960" cy="148" r="2.5" fill="#667eea"/>
    <circle cx="970" cy="145" r="3" fill="#764ba2"/>
    <circle cx="980" cy="142" r="2" fill="#764ba2"/>
    <circle cx="990" cy="140" r="2" fill="#764ba2"/>
    <circle cx="1000" cy="140" r="2.5" fill="#667eea"/>
    <circle cx="1010" cy="142" r="2" fill="#667eea"/>
    <circle cx="1020" cy="145" r="3" fill="#667eea"/>
    <circle cx="1030" cy="148" r="2" fill="#764ba2"/>
    <circle cx="1040" cy="150" r="2.5" fill="#764ba2"/>
    
    <circle cx="955" cy="160" r="2" fill="#667eea"/>
    <circle cx="975" cy="158" r="2.5" fill="#764ba2"/>
    <circle cx="995" cy="155" r="2" fill="#667eea"/>
    <circle cx="1015" cy="158" r="2.5" fill="#764ba2"/>
    <circle cx="1035" cy="160" r="2" fill="#667eea"/>
  </g>
  
  <!-- Arrow: Image → Point Cloud -->
  <g opacity="0.3">
    <line x1="160" y1="150" x2="200" y2="150" stroke="url(#accent)" stroke-width="2" stroke-dasharray="4,4"/>
    <polygon points="200,145 210,150 200,155" fill="#667eea"/>
  </g>
  
  <!-- Title -->
  <text x="600" y="100" font-family="'Segoe UI', 'Helvetica Neue', sans-serif" font-size="36" font-weight="700" fill="white" text-anchor="middle" letter-spacing="-0.5">
    Bridging Synthetic to Real 3D
  </text>
  
  <!-- Subtitle -->
  <text x="600" y="140" font-family="'Segoe UI', 'Helvetica Neue', sans-serif" font-size="18" fill="#a8b2d1" text-anchor="middle" letter-spacing="1">
    Single-Image 3D Point Cloud Reconstruction
  </text>
  
  <!-- Divider -->
  <rect x="520" y="165" width="160" height="2" rx="1" fill="url(#accent)" opacity="0.6"/>
  
  <!-- Tagline -->
  <text x="600" y="185" font-family="'Segoe UI', 'Helvetica Neue', sans-serif" font-size="13" fill="#8892b0" text-anchor="middle" letter-spacing="0.5">
    Hybrid CNN-Transformer · 17.5M params · 2048 points · 6× better than Pix2Vox
  </text>
  
  <!-- Stats pills -->
  <g transform="translate(370, 220)">
    <!-- CD -->
    <rect x="0" y="0" width="100" height="28" rx="14" fill="#667eea" opacity="0.2"/>
    <rect x="0" y="0" width="100" height="28" rx="14" stroke="#667eea" stroke-width="1" fill="none" opacity="0.5"/>
    <text x="50" y="19" font-family="'Segoe UI', monospace" font-size="12" fill="#667eea" text-anchor="middle">CD 0.0081</text>
    
    <!-- F-Score -->
    <rect x="115" y="0" width="120" height="28" rx="14" fill="#38ef7d" opacity="0.15"/>
    <rect x="115" y="0" width="120" height="28" rx="14" stroke="#38ef7d" stroke-width="1" fill="none" opacity="0.4"/>
    <text x="175" y="19" font-family="'Segoe UI', monospace" font-size="12" fill="#38ef7d" text-anchor="middle">F@0.05 0.686</text>
    
    <!-- Params -->
    <rect x="250" y="0" width="110" height="28" rx="14" fill="#764ba2" opacity="0.2"/>
    <rect x="250" y="0" width="110" height="28" rx="14" stroke="#764ba2" stroke-width="1" fill="none" opacity="0.5"/>
    <text x="305" y="19" font-family="'Segoe UI', monospace" font-size="12" fill="#c4a8e0" text-anchor="middle">17.5M params</text>
  </g>
  
  <!-- Bottom bar -->
  <rect x="0" y="294" width="1200" height="6" fill="url(#accent)" opacity="0.8"/>
</svg>
